# xmcd
#
# Track frame offsets:
#	150
#	1295
#	22284
#	55102
#	70582
#	97295
#	133195
#	157919
#	192672
#	222964
#
# Disc length: 3398 seconds
#
# Revision: 1
# Processed by: cddbd v1.5.1PL2 Copyright (c) Steve Scherf et al.
# Submitted via: EasyCDDAExtractor 9.0.0.1
#
DISCID=900d440a
DTITLE=Saxon - Attic Ballroom Waunakee 04-11-00 Disc 2
DYEAR=2000
DGENRE=Hard Rock
TTITLE0=This Town Rocks Part 1
TTITLE1=This Town Rocks Part 2
TTITLE2=Conquistador
TTITLE3=Drum Solo - Conquistador 
TTITLE4=Princess Of The Night
TTITLE5=Heavy Metal Thunder - Solid Ball Of Rock
TTITLE6=Wheels Of Steel
TTITLE7=Dallas 1PM
TTITLE8=Crusader
TTITLE9=Denim And Leather
EXTD=
EXTT0=
EXTT1=
EXTT2=
EXTT3=
EXTT4=
EXTT5=
EXTT6=
EXTT7=
EXTT8=
EXTT9=
PLAYORDER=
